<?xml version="1.0" encoding="UTF-8"?>
<svg width="60px" height="60px" viewBox="0 0 60 60" version="1.1" xmlns="http://www.w3.org/2000/svg" xmlns:xlink="http://www.w3.org/1999/xlink">
    <!-- Generator: Sketch 40.3 (33839) - http://www.bohemiancoding.com/sketch -->
    <title>:: Logo</title>
    <desc>Created with Sketch.</desc>
    <defs></defs>
    <g id="Symbols" stroke="none" stroke-width="1" fill="none" fill-rule="evenodd">
        <g id="//-Header" transform="translate(-770.000000, -30.000000)" fill="#FF6600">
            <g id="::-Logo">
                <path d="M820.712573,69.9724275 L811.92349,78.7616381 C807.738163,82.9469644 801.288239,82.6513991 797.176581,78.5398686 C793.11463,74.4777901 792.843918,67.9535601 796.979665,63.8178134 L805.768748,55.0286027 C806.999951,53.797527 808.476758,53.8963036 809.535261,54.9549345 C810.593892,56.0134379 810.692924,57.4904994 809.461848,58.7217026 L800.869681,67.3137423 C798.703477,69.4799462 798.334243,72.901952 800.57437,75.1420791 C802.913402,77.4809828 806.162835,77.1362204 808.427433,74.8716222 L817.0196,66.2794551 C818.250676,65.0483793 819.72761,65.147156 820.786368,66.2060417 C821.844999,67.2645451 821.943776,68.7413517 820.712573,69.9724275 L820.712573,69.9724275 Z M780.78947,61.1338923 C776.739372,57.083667 776.460631,50.5870945 780.558396,46.4494359 L780.556612,46.4475241 L783.605815,43.398448 C784.836891,42.1673723 786.313698,42.2660215 787.372329,43.3246523 C788.430832,44.3832832 788.529991,45.8603447 787.298788,47.0914205 L784.482442,49.907766 C782.316366,52.0739699 781.947132,55.4958482 784.187259,57.7359753 C786.526163,60.0750065 789.775596,59.7302441 792.040195,57.4656459 L800.632362,48.8734788 C800.815895,48.6899454 801.005929,48.5450305 801.198256,48.4193611 C805.377337,44.8934805 811.372125,45.3549906 815.269278,49.2522713 C819.331229,53.3142224 819.602068,59.8385798 815.466321,63.9743266 L806.677111,72.7634097 C805.446035,73.9944855 803.969228,73.8958363 802.910598,72.8372054 C801.851967,71.7785746 801.753063,70.3015131 802.984011,69.0704373 L811.576178,60.4782702 C813.742255,58.3121937 814.111615,54.890188 811.871488,52.6500609 C809.532585,50.3111571 806.283151,50.6559195 804.018426,52.9205177 L795.426258,61.5125574 C795.242725,61.6960908 795.052692,61.8410057 794.860364,61.9666751 C790.681283,65.4925556 784.686623,65.0310456 780.78947,61.1338923 L780.78947,61.1338923 Z M799.999936,30 C783.431459,30 770,43.4314586 770,59.9999363 C770,76.5685414 783.431459,90 799.999936,90 C816.568541,90 830,76.5685414 830,59.9999363 C830,43.4314586 816.568541,30 799.999936,30 L799.999936,30 Z"></path>
            </g>
        </g>
    </g>
</svg>